  0
SECTION
  2
HEADER
  9
$ACADVER
  1
AC1009
  9
$LUNITS
  70
2
  9
$DWGCODEPAGE
  3
ANSI_1252
  9
$LIMMIN
  10
555251.806
  20
77096.166
  9
$LIMMAX
  10
555817.197
  20
77773.642
  9
$EXTMIN
  10
555251.806
  20
77096.166
  9
$EXTMAX
  10
555817.197
  20
77773.642
  999
Created by Global Mapper
  999
Projection: UTM
  999
Datum: WGS84
  999
Ground Units: meters
  999
ZONE: 50
  0
ENDSEC
  0
SECTION
  2
TABLES
  0
ENDSEC
  0
SECTION
  2
BLOCKS
  0
ENDSEC
  0
SECTION
  2
ENTITIES
  0
POLYLINE
  8
0_2025_L_MONTHLY_BDY_FINAL_PDE_
  70
9
  66
1
  0
VERTEX
  8
0_2025_L_MONTHLY_BDY_FINAL_PDE_
  70
32
  10
555251.806
  20
77672.532
  30
30
  0
VERTEX
  8
0_2025_L_MONTHLY_BDY_FINAL_PDE_
  70
32
  10
555256.377
  20
77671.227
  30
30
  0
VERTEX
  8
0_2025_L_MONTHLY_BDY_FINAL_PDE_
  70
32
  10
555260.714
  20
77669.104
  30
28.988
  0
VERTEX
  8
0_2025_L_MONTHLY_BDY_FINAL_PDE_
  70
32
  10
555265.057
  20
77667.001
  30
28
  0
VERTEX
  8
0_2025_L_MONTHLY_BDY_FINAL_PDE_
  70
32
  10
555269.599
  20
77665.594
  30
27.874
  0
VERTEX
  8
0_2025_L_MONTHLY_BDY_FINAL_PDE_
  70
32
  10
555273.987
  20
77663.647
  30
27.079
  0
VERTEX
  8
0_2025_L_MONTHLY_BDY_FINAL_PDE_
  70
32
  10
555278.373
  20
77661.695
  30
26.278
  0
VERTEX
  8
0_2025_L_MONTHLY_BDY_FINAL_PDE_
  70
32
  10
555282.707
  20
77659.562
  30
25.252
  0
VERTEX
  8
0_2025_L_MONTHLY_BDY_FINAL_PDE_
  70
32
  10
555287.030
  20
77657.387
  30
24.175
  0
VERTEX
  8
0_2025_L_MONTHLY_BDY_FINAL_PDE_
  70
32
  10
555291.352
  20
77655.212
  30
23.098
  0
VERTEX
  8
0_2025_L_MONTHLY_BDY_FINAL_PDE_
  70
32
  10
555295.794
  20
77653.455
  30
22.538
  0
VERTEX
  8
0_2025_L_MONTHLY_BDY_FINAL_PDE_
  70
32
  10
555300.343
  20
77652.074
  30
22.445
  0
VERTEX
  8
0_2025_L_MONTHLY_BDY_FINAL_PDE_
  70
32
  10
555304.849
  20
77650.543
  30
22.165
  0
VERTEX
  8
0_2025_L_MONTHLY_BDY_FINAL_PDE_
  70
32
  10
555308.823
  20
77647.145
  30
19.572
  0
VERTEX
  8
0_2025_L_MONTHLY_BDY_FINAL_PDE_
  70
32
  10
555312.786
  20
77643.712
  30
16.936
  0
VERTEX
  8
0_2025_L_MONTHLY_BDY_FINAL_PDE_
  70
32
  10
555316.518
  20
77640.801
  30
14.821
  0
VERTEX
  8
0_2025_L_MONTHLY_BDY_FINAL_PDE_
  70
32
  10
555317.870
  20
77635.953
  30
13.3
  0
VERTEX
  8
0_2025_L_MONTHLY_BDY_FINAL_PDE_
  70
32
  10
555319.785
  20
77631.304
  30
12.472
  0
VERTEX
  8
0_2025_L_MONTHLY_BDY_FINAL_PDE_
  70
32
  10
555322.494
  20
77627.121
  30
12.738
  0
VERTEX
  8
0_2025_L_MONTHLY_BDY_FINAL_PDE_
  70
32
  10
555325.479
  20
77623.099
  30
13.386
  0
VERTEX
  8
0_2025_L_MONTHLY_BDY_FINAL_PDE_
  70
32
  10
555329.773
  20
77619.847
  30
15.845
  0
VERTEX
  8
0_2025_L_MONTHLY_BDY_FINAL_PDE_
  70
32
  10
555333.850
  20
77616.459
  30
18
  0
VERTEX
  8
0_2025_L_MONTHLY_BDY_FINAL_PDE_
  70
32
  10
555336.366
  20
77612.158
  30
18
  0
VERTEX
  8
0_2025_L_MONTHLY_BDY_FINAL_PDE_
  70
32
  10
555338.883
  20
77607.857
  30
18
  0
VERTEX
  8
0_2025_L_MONTHLY_BDY_FINAL_PDE_
  70
32
  10
555341.455
  20
77603.589
  30
18.077
  0
VERTEX
  8
0_2025_L_MONTHLY_BDY_FINAL_PDE_
  70
32
  10
555344.077
  20
77599.349
  30
18.222
  0
VERTEX
  8
0_2025_L_MONTHLY_BDY_FINAL_PDE_
  70
32
  10
555346.695
  20
77595.108
  30
18.363
  0
VERTEX
  8
0_2025_L_MONTHLY_BDY_FINAL_PDE_
  70
32
  10
555349.211
  20
77590.806
  30
18.363
  0
VERTEX
  8
0_2025_L_MONTHLY_BDY_FINAL_PDE_
  70
32
  10
555352.108
  20
77586.728
  30
18.888
  0
VERTEX
  8
0_2025_L_MONTHLY_BDY_FINAL_PDE_
  70
32
  10
555355.149
  20
77582.734
  30
19.612
  0
VERTEX
  8
0_2025_L_MONTHLY_BDY_FINAL_PDE_
  70
32
  10
555358.065
  20
77578.666
  30
20.164
  0
VERTEX
  8
0_2025_L_MONTHLY_BDY_FINAL_PDE_
  70
32
  10
555360.656
  20
77574.409
  30
20.267
  0
VERTEX
  8
0_2025_L_MONTHLY_BDY_FINAL_PDE_
  70
32
  10
555363.252
  20
77570.154
  30
20.376
  0
VERTEX
  8
0_2025_L_MONTHLY_BDY_FINAL_PDE_
  70
32
  10
555365.768
  20
77565.854
  30
20.376
  0
VERTEX
  8
0_2025_L_MONTHLY_BDY_FINAL_PDE_
  70
32
  10
555368.284
  20
77561.552
  30
20.376
  0
VERTEX
  8
0_2025_L_MONTHLY_BDY_FINAL_PDE_
  70
32
  10
555370.801
  20
77557.251
  30
20.376
  0
VERTEX
  8
0_2025_L_MONTHLY_BDY_FINAL_PDE_
  70
32
  10
555373.215
  20
77552.891
  30
20.235
  0
VERTEX
  8
0_2025_L_MONTHLY_BDY_FINAL_PDE_
  70
32
  10
555375.641
  20
77548.536
  30
20.111
  0
VERTEX
  8
0_2025_L_MONTHLY_BDY_FINAL_PDE_
  70
32
  10
555378.106
  20
77544.206
  30
20.04
  0
VERTEX
  8
0_2025_L_MONTHLY_BDY_FINAL_PDE_
  70
32
  10
555380.622
  20
77539.905
  30
20.04
  0
VERTEX
  8
0_2025_L_MONTHLY_BDY_FINAL_PDE_
  70
32
  10
555383.139
  20
77535.603
  30
20.04
  0
VERTEX
  8
0_2025_L_MONTHLY_BDY_FINAL_PDE_
  70
32
  10
555385.844
  20
77531.413
  30
20.3
  0
VERTEX
  8
0_2025_L_MONTHLY_BDY_FINAL_PDE_
  70
32
  10
555388.361
  20
77527.112
  30
20.3
  0
VERTEX
  8
0_2025_L_MONTHLY_BDY_FINAL_PDE_
  70
32
  10
555390.819
  20
77522.777
  30
20.22
  0
VERTEX
  8
0_2025_L_MONTHLY_BDY_FINAL_PDE_
  70
32
  10
555394.704
  20
77519.276
  30
22.11
  0
VERTEX
  8
0_2025_L_MONTHLY_BDY_FINAL_PDE_
  70
32
  10
555398.042
  20
77515.456
  30
23.245
  0
VERTEX
  8
0_2025_L_MONTHLY_BDY_FINAL_PDE_
  70
32
  10
555401.106
  20
77511.475
  30
24
  0
VERTEX
  8
0_2025_L_MONTHLY_BDY_FINAL_PDE_
  70
32
  10
555403.622
  20
77507.174
  30
24
  0
VERTEX
  8
0_2025_L_MONTHLY_BDY_FINAL_PDE_
  70
32
  10
555406.139
  20
77502.873
  30
24
  0
VERTEX
  8
0_2025_L_MONTHLY_BDY_FINAL_PDE_
  70
32
  10
555408.655
  20
77498.572
  30
24
  0
VERTEX
  8
0_2025_L_MONTHLY_BDY_FINAL_PDE_
  70
32
  10
555411.171
  20
77494.271
  30
24
  0
VERTEX
  8
0_2025_L_MONTHLY_BDY_FINAL_PDE_
  70
32
  10
555431.453
  20
77459.615
  30
24
  0
VERTEX
  8
0_2025_L_MONTHLY_BDY_FINAL_PDE_
  70
32
  10
555433.947
  20
77455.351
  30
24
  0
VERTEX
  8
0_2025_L_MONTHLY_BDY_FINAL_PDE_
  70
32
  10
555436.442
  20
77451.087
  30
24
  0
VERTEX
  8
0_2025_L_MONTHLY_BDY_FINAL_PDE_
  70
32
  10
555438.937
  20
77446.823
  30
24
  0
VERTEX
  8
0_2025_L_MONTHLY_BDY_FINAL_PDE_
  70
32
  10
555440.958
  20
77442.281
  30
23.345
  0
VERTEX
  8
0_2025_L_MONTHLY_BDY_FINAL_PDE_
  70
32
  10
555443.003
  20
77437.754
  30
22.724
  0
VERTEX
  8
0_2025_L_MONTHLY_BDY_FINAL_PDE_
  70
32
  10
555444.974
  20
77433.183
  30
22
  0
VERTEX
  8
0_2025_L_MONTHLY_BDY_FINAL_PDE_
  70
32
  10
555447.960
  20
77429.207
  30
22.678
  0
VERTEX
  8
0_2025_L_MONTHLY_BDY_FINAL_PDE_
  70
32
  10
555451.172
  20
77425.362
  30
23.669
  0
VERTEX
  8
0_2025_L_MONTHLY_BDY_FINAL_PDE_
  70
32
  10
555454.717
  20
77421.713
  30
25.119
  0
VERTEX
  8
0_2025_L_MONTHLY_BDY_FINAL_PDE_
  70
32
  10
555457.850
  20
77417.822
  30
26
  0
VERTEX
  8
0_2025_L_MONTHLY_BDY_FINAL_PDE_
  70
32
  10
555460.345
  20
77413.558
  30
26
  0
VERTEX
  8
0_2025_L_MONTHLY_BDY_FINAL_PDE_
  70
32
  10
555462.840
  20
77409.294
  30
26
  0
VERTEX
  8
0_2025_L_MONTHLY_BDY_FINAL_PDE_
  70
32
  10
555465.335
  20
77405.030
  30
26
  0
VERTEX
  8
0_2025_L_MONTHLY_BDY_FINAL_PDE_
  70
32
  10
555467.830
  20
77400.766
  30
26
  0
VERTEX
  8
0_2025_L_MONTHLY_BDY_FINAL_PDE_
  70
32
  10
555470.325
  20
77396.502
  30
26
  0
VERTEX
  8
0_2025_L_MONTHLY_BDY_FINAL_PDE_
  70
32
  10
555472.820
  20
77392.238
  30
26
  0
VERTEX
  8
0_2025_L_MONTHLY_BDY_FINAL_PDE_
  70
32
  10
555475.236
  20
77387.928
  30
25.891
  0
VERTEX
  8
0_2025_L_MONTHLY_BDY_FINAL_PDE_
  70
32
  10
555477.462
  20
77383.506
  30
25.52
  0
VERTEX
  8
0_2025_L_MONTHLY_BDY_FINAL_PDE_
  70
32
  10
555479.737
  20
77379.114
  30
25.217
  0
VERTEX
  8
0_2025_L_MONTHLY_BDY_FINAL_PDE_
  70
32
  10
555482.134
  20
77374.793
  30
25.082
  0
VERTEX
  8
0_2025_L_MONTHLY_BDY_FINAL_PDE_
  70
32
  10
555484.393
  20
77370.390
  30
24.755
  0
VERTEX
  8
0_2025_L_MONTHLY_BDY_FINAL_PDE_
  70
32
  10
555486.620
  20
77365.970
  30
24.386
  0
VERTEX
  8
0_2025_L_MONTHLY_BDY_FINAL_PDE_
  70
32
  10
555488.848
  20
77361.549
  30
24.017
  0
VERTEX
  8
0_2025_L_MONTHLY_BDY_FINAL_PDE_
  70
32
  10
555490.208
  20
77356.621
  30
22.45
  0
VERTEX
  8
0_2025_L_MONTHLY_BDY_FINAL_PDE_
  70
32
  10
555491.279
  20
77351.524
  30
20.484
  0
VERTEX
  8
0_2025_L_MONTHLY_BDY_FINAL_PDE_
  70
32
  10
555492.362
  20
77346.433
  30
18.534
  0
VERTEX
  8
0_2025_L_MONTHLY_BDY_FINAL_PDE_
  70
32
  10
555494.470
  20
77341.943
  30
18
  0
VERTEX
  8
0_2025_L_MONTHLY_BDY_FINAL_PDE_
  70
32
  10
555496.965
  20
77337.679
  30
18
  0
VERTEX
  8
0_2025_L_MONTHLY_BDY_FINAL_PDE_
  70
32
  10
555499.459
  20
77333.415
  30
18
  0
VERTEX
  8
0_2025_L_MONTHLY_BDY_FINAL_PDE_
  70
32
  10
555501.954
  20
77329.151
  30
18
  0
VERTEX
  8
0_2025_L_MONTHLY_BDY_FINAL_PDE_
  70
32
  10
555504.449
  20
77324.887
  30
18
  0
VERTEX
  8
0_2025_L_MONTHLY_BDY_FINAL_PDE_
  70
32
  10
555506.944
  20
77320.623
  30
18
  0
VERTEX
  8
0_2025_L_MONTHLY_BDY_FINAL_PDE_
  70
32
  10
555509.439
  20
77316.359
  30
18
  0
VERTEX
  8
0_2025_L_MONTHLY_BDY_FINAL_PDE_
  70
32
  10
555512.015
  20
77312.142
  30
18.112
  0
VERTEX
  8
0_2025_L_MONTHLY_BDY_FINAL_PDE_
  70
32
  10
555514.643
  20
77307.956
  30
18.296
  0
VERTEX
  8
0_2025_L_MONTHLY_BDY_FINAL_PDE_
  70
32
  10
555517.138
  20
77303.692
  30
18.296
  0
VERTEX
  8
0_2025_L_MONTHLY_BDY_FINAL_PDE_
  70
32
  10
555519.633
  20
77299.428
  30
18.296
  0
VERTEX
  8
0_2025_L_MONTHLY_BDY_FINAL_PDE_
  70
32
  10
555522.068
  20
77295.129
  30
18.213
  0
VERTEX
  8
0_2025_L_MONTHLY_BDY_FINAL_PDE_
  70
32
  10
555524.509
  20
77290.834
  30
18.139
  0
VERTEX
  8
0_2025_L_MONTHLY_BDY_FINAL_PDE_
  70
32
  10
555526.939
  20
77286.532
  30
18.05
  0
VERTEX
  8
0_2025_L_MONTHLY_BDY_FINAL_PDE_
  70
32
  10
555529.434
  20
77282.268
  30
18.05
  0
VERTEX
  8
0_2025_L_MONTHLY_BDY_FINAL_PDE_
  70
32
  10
555531.929
  20
77278.003
  30
18.05
  0
VERTEX
  8
0_2025_L_MONTHLY_BDY_FINAL_PDE_
  70
32
  10
555534.424
  20
77273.740
  30
18.05
  0
VERTEX
  8
0_2025_L_MONTHLY_BDY_FINAL_PDE_
  70
32
  10
555537.012
  20
77269.530
  30
18.178
  0
VERTEX
  8
0_2025_L_MONTHLY_BDY_FINAL_PDE_
  70
32
  10
555539.612
  20
77265.328
  30
18.323
  0
VERTEX
  8
0_2025_L_MONTHLY_BDY_FINAL_PDE_
  70
32
  10
555542.198
  20
77261.117
  30
18.449
  0
VERTEX
  8
0_2025_L_MONTHLY_BDY_FINAL_PDE_
  70
32
  10
555544.778
  20
77256.902
  30
18.566
  0
VERTEX
  8
0_2025_L_MONTHLY_BDY_FINAL_PDE_
  70
32
  10
555547.334
  20
77252.674
  30
18.651
  0
VERTEX
  8
0_2025_L_MONTHLY_BDY_FINAL_PDE_
  70
32
  10
555549.881
  20
77248.440
  30
18.723
  0
VERTEX
  8
0_2025_L_MONTHLY_BDY_FINAL_PDE_
  70
32
  10
555552.434
  20
77244.211
  30
18.803
  0
VERTEX
  8
0_2025_L_MONTHLY_BDY_FINAL_PDE_
  70
32
  10
555555.003
  20
77239.990
  30
18.906
  0
VERTEX
  8
0_2025_L_MONTHLY_BDY_FINAL_PDE_
  70
32
  10
555557.580
  20
77235.774
  30
19.018
  0
VERTEX
  8
0_2025_L_MONTHLY_BDY_FINAL_PDE_
  70
32
  10
555560.162
  20
77231.561
  30
19.139
  0
VERTEX
  8
0_2025_L_MONTHLY_BDY_FINAL_PDE_
  70
32
  10
555562.765
  20
77227.360
  30
19.288
  0
VERTEX
  8
0_2025_L_MONTHLY_BDY_FINAL_PDE_
  70
32
  10
555565.375
  20
77223.164
  30
19.447
  0
VERTEX
  8
0_2025_L_MONTHLY_BDY_FINAL_PDE_
  70
32
  10
555567.988
  20
77218.969
  30
19.61
  0
VERTEX
  8
0_2025_L_MONTHLY_BDY_FINAL_PDE_
  70
32
  10
555570.602
  20
77214.774
  30
19.774
  0
VERTEX
  8
0_2025_L_MONTHLY_BDY_FINAL_PDE_
  70
32
  10
555573.202
  20
77210.571
  30
19.919
  0
VERTEX
  8
0_2025_L_MONTHLY_BDY_FINAL_PDE_
  70
32
  10
555575.697
  20
77206.307
  30
19.919
  0
VERTEX
  8
0_2025_L_MONTHLY_BDY_FINAL_PDE_
  70
32
  10
555578.192
  20
77202.043
  30
19.919
  0
VERTEX
  8
0_2025_L_MONTHLY_BDY_FINAL_PDE_
  70
32
  10
555580.687
  20
77197.779
  30
19.919
  0
VERTEX
  8
0_2025_L_MONTHLY_BDY_FINAL_PDE_
  70
32
  10
555583.181
  20
77193.515
  30
19.919
  0
VERTEX
  8
0_2025_L_MONTHLY_BDY_FINAL_PDE_
  70
32
  10
555585.676
  20
77189.251
  30
19.919
  0
VERTEX
  8
0_2025_L_MONTHLY_BDY_FINAL_PDE_
  70
32
  10
555588.171
  20
77184.987
  30
19.919
  0
VERTEX
  8
0_2025_L_MONTHLY_BDY_FINAL_PDE_
  70
32
  10
555590.580
  20
77180.672
  30
19.801
  0
VERTEX
  8
0_2025_L_MONTHLY_BDY_FINAL_PDE_
  70
32
  10
555592.818
  20
77176.258
  30
19.445
  0
VERTEX
  8
0_2025_L_MONTHLY_BDY_FINAL_PDE_
  70
32
  10
555595.099
  20
77171.869
  30
19.151
  0
VERTEX
  8
0_2025_L_MONTHLY_BDY_FINAL_PDE_
  70
32
  10
555597.381
  20
77167.481
  30
18.856
  0
VERTEX
  8
0_2025_L_MONTHLY_BDY_FINAL_PDE_
  70
32
  10
555599.663
  20
77163.092
  30
18.562
  0
VERTEX
  8
0_2025_L_MONTHLY_BDY_FINAL_PDE_
  70
32
  10
555601.914
  20
77158.762
  30
18.272
  0
VERTEX
  8
0_2025_L_MONTHLY_BDY_FINAL_PDE_
  70
32
  10
555604.313
  20
77154.518
  30
18.185
  0
VERTEX
  8
0_2025_L_MONTHLY_BDY_FINAL_PDE_
  70
32
  10
555606.900
  20
77150.385
  30
18.359
  0
VERTEX
  8
0_2025_L_MONTHLY_BDY_FINAL_PDE_
  70
32
  10
555609.823
  20
77146.449
  30
18.997
  0
VERTEX
  8
0_2025_L_MONTHLY_BDY_FINAL_PDE_
  70
32
  10
555612.504
  20
77142.370
  30
19.3
  0
VERTEX
  8
0_2025_L_MONTHLY_BDY_FINAL_PDE_
  70
32
  10
555615.185
  20
77138.292
  30
19.603
  0
VERTEX
  8
0_2025_L_MONTHLY_BDY_FINAL_PDE_
  70
32
  10
555617.866
  20
77134.214
  30
19.906
  0
VERTEX
  8
0_2025_L_MONTHLY_BDY_FINAL_PDE_
  70
32
  10
555620.327
  20
77130.007
  30
19.906
  0
VERTEX
  8
0_2025_L_MONTHLY_BDY_FINAL_PDE_
  70
32
  10
555623.444
  20
77126.184
  30
20.811
  0
VERTEX
  8
0_2025_L_MONTHLY_BDY_FINAL_PDE_
  70
32
  10
555626.668
  20
77122.423
  30
21.864
  0
VERTEX
  8
0_2025_L_MONTHLY_BDY_FINAL_PDE_
  70
32
  10
555630.026
  20
77118.741
  30
23.102
  0
VERTEX
  8
0_2025_L_MONTHLY_BDY_FINAL_PDE_
  70
32
  10
555633.334
  20
77115.029
  30
24.271
  0
VERTEX
  8
0_2025_L_MONTHLY_BDY_FINAL_PDE_
  70
32
  10
555636.401
  20
77111.177
  30
25.108
  0
VERTEX
  8
0_2025_L_MONTHLY_BDY_FINAL_PDE_
  70
32
  10
555639.469
  20
77107.325
  30
25.945
  0
VERTEX
  8
0_2025_L_MONTHLY_BDY_FINAL_PDE_
  70
32
  10
555642.681
  20
77103.557
  30
26.981
  0
VERTEX
  8
0_2025_L_MONTHLY_BDY_FINAL_PDE_
  70
32
  10
555646.016
  20
77099.861
  30
28.187
  0
VERTEX
  8
0_2025_L_MONTHLY_BDY_FINAL_PDE_
  70
32
  10
555649.351
  20
77096.166
  30
29.393
  0
VERTEX
  8
0_2025_L_MONTHLY_BDY_FINAL_PDE_
  70
32
  10
555649.790
  20
77096.423
  30
30
  0
VERTEX
  8
0_2025_L_MONTHLY_BDY_FINAL_PDE_
  70
32
  10
555635.064
  20
77151.298
  30
20
  0
VERTEX
  8
0_2025_L_MONTHLY_BDY_FINAL_PDE_
  70
32
  10
555638.267
  20
77152.470
  30
20
  0
VERTEX
  8
0_2025_L_MONTHLY_BDY_FINAL_PDE_
  70
32
  10
555647.986
  20
77162.814
  30
20
  0
VERTEX
  8
0_2025_L_MONTHLY_BDY_FINAL_PDE_
  70
32
  10
555663.267
  20
77168.204
  30
20
  0
VERTEX
  8
0_2025_L_MONTHLY_BDY_FINAL_PDE_
  70
32
  10
555672.783
  20
77188.017
  30
20
  0
VERTEX
  8
0_2025_L_MONTHLY_BDY_FINAL_PDE_
  70
32
  10
555688.267
  20
77191.314
  30
20
  0
VERTEX
  8
0_2025_L_MONTHLY_BDY_FINAL_PDE_
  70
32
  10
555701.665
  20
77172.532
  30
20
  0
VERTEX
  8
0_2025_L_MONTHLY_BDY_FINAL_PDE_
  70
32
  10
555713.267
  20
77156.767
  30
20
  0
VERTEX
  8
0_2025_L_MONTHLY_BDY_FINAL_PDE_
  70
32
  10
555722.236
  20
77147.532
  30
20
  0
VERTEX
  8
0_2025_L_MONTHLY_BDY_FINAL_PDE_
  70
32
  10
555738.267
  20
77134.298
  30
20
  0
VERTEX
  8
0_2025_L_MONTHLY_BDY_FINAL_PDE_
  70
32
  10
555759.908
  20
77122.532
  30
20
  0
VERTEX
  8
0_2025_L_MONTHLY_BDY_FINAL_PDE_
  70
32
  10
555776.056
  20
77134.751
  30
20
  0
VERTEX
  8
0_2025_L_MONTHLY_BDY_FINAL_PDE_
  70
32
  10
555785.126
  20
77147.532
  30
20
  0
VERTEX
  8
0_2025_L_MONTHLY_BDY_FINAL_PDE_
  70
32
  10
555800.493
  20
77160.314
  30
20
  0
VERTEX
  8
0_2025_L_MONTHLY_BDY_FINAL_PDE_
  70
32
  10
555813.267
  20
77163.251
  30
20
  0
VERTEX
  8
0_2025_L_MONTHLY_BDY_FINAL_PDE_
  70
32
  10
555817.197
  20
77171.689
  30
20
  0
VERTEX
  8
0_2025_L_MONTHLY_BDY_FINAL_PDE_
  70
32
  10
555807.478
  20
77203.157
  30
15
  0
VERTEX
  8
0_2025_L_MONTHLY_BDY_FINAL_PDE_
  70
32
  10
555805.501
  20
77209.407
  30
14.052
  0
VERTEX
  8
0_2025_L_MONTHLY_BDY_FINAL_PDE_
  70
32
  10
555803.283
  20
77216.220
  30
13.036
  0
VERTEX
  8
0_2025_L_MONTHLY_BDY_FINAL_PDE_
  70
32
  10
555800.579
  20
77222.923
  30
12.335
  0
VERTEX
  8
0_2025_L_MONTHLY_BDY_FINAL_PDE_
  70
32
  10
555793.884
  20
77238.251
  30
11.026
  0
VERTEX
  8
0_2025_L_MONTHLY_BDY_FINAL_PDE_
  70
32
  10
555792.939
  20
77240.282
  30
10.887
  0
VERTEX
  8
0_2025_L_MONTHLY_BDY_FINAL_PDE_
  70
32
  10
555792.525
  20
77241.220
  30
10.809
  0
VERTEX
  8
0_2025_L_MONTHLY_BDY_FINAL_PDE_
  70
32
  10
555783.611
  20
77255.954
  30
10.981
  0
VERTEX
  8
0_2025_L_MONTHLY_BDY_FINAL_PDE_
  70
32
  10
555779.087
  20
77266.220
  30
10.124
  0
VERTEX
  8
0_2025_L_MONTHLY_BDY_FINAL_PDE_
  70
32
  10
555778.322
  20
77267.860
  30
10.01
  0
VERTEX
  8
0_2025_L_MONTHLY_BDY_FINAL_PDE_
  70
32
  10
555776.173
  20
77272.470
  30
9.683
  0
VERTEX
  8
0_2025_L_MONTHLY_BDY_FINAL_PDE_
  70
32
  10
555771.954
  20
77281.626
  30
9.021
  0
VERTEX
  8
0_2025_L_MONTHLY_BDY_FINAL_PDE_
  70
32
  10
555767.556
  20
77290.704
  30
8.497
  0
VERTEX
  8
0_2025_L_MONTHLY_BDY_FINAL_PDE_
  70
32
  10
555762.548
  20
77299.407
  30
8.451
  0
VERTEX
  8
0_2025_L_MONTHLY_BDY_FINAL_PDE_
  70
32
  10
555757.423
  20
77308.048
  30
8.486
  0
VERTEX
  8
0_2025_L_MONTHLY_BDY_FINAL_PDE_
  70
32
  10
555752.204
  20
77316.642
  30
8.601
  0
VERTEX
  8
0_2025_L_MONTHLY_BDY_FINAL_PDE_
  70
32
  10
555747.064
  20
77325.267
  30
8.653
  0
VERTEX
  8
0_2025_L_MONTHLY_BDY_FINAL_PDE_
  70
32
  10
555741.876
  20
77333.876
  30
8.739
  0
VERTEX
  8
0_2025_L_MONTHLY_BDY_FINAL_PDE_
  70
32
  10
555736.728
  20
77342.501
  30
8.797
  0
VERTEX
  8
0_2025_L_MONTHLY_BDY_FINAL_PDE_
  70
32
  10
555731.712
  20
77351.220
  30
8.751
  0
VERTEX
  8
0_2025_L_MONTHLY_BDY_FINAL_PDE_
  70
32
  10
555726.697
  20
77359.923
  30
8.705
  0
VERTEX
  8
0_2025_L_MONTHLY_BDY_FINAL_PDE_
  70
32
  10
555721.626
  20
77368.595
  30
8.705
  0
VERTEX
  8
0_2025_L_MONTHLY_BDY_FINAL_PDE_
  70
32
  10
555716.759
  20
77377.392
  30
8.544
  0
VERTEX
  8
0_2025_L_MONTHLY_BDY_FINAL_PDE_
  70
32
  10
555712.204
  20
77386.360
  30
8.141
  0
VERTEX
  8
0_2025_L_MONTHLY_BDY_FINAL_PDE_
  70
32
  10
555707.533
  20
77395.267
  30
7.83
  0
VERTEX
  8
0_2025_L_MONTHLY_BDY_FINAL_PDE_
  70
32
  10
555702.626
  20
77404.032
  30
7.703
  0
VERTEX
  8
0_2025_L_MONTHLY_BDY_FINAL_PDE_
  70
32
  10
555697.548
  20
77412.704
  30
7.709
  0
VERTEX
  8
0_2025_L_MONTHLY_BDY_FINAL_PDE_
  70
32
  10
555692.236
  20
77421.251
  30
7.888
  0
VERTEX
  8
0_2025_L_MONTHLY_BDY_FINAL_PDE_
  70
32
  10
555686.720
  20
77429.657
  30
8.233
  0
VERTEX
  8
0_2025_L_MONTHLY_BDY_FINAL_PDE_
  70
32
  10
555681.243
  20
77438.095
  30
8.544
  0
VERTEX
  8
0_2025_L_MONTHLY_BDY_FINAL_PDE_
  70
32
  10
555676.001
  20
77446.657
  30
8.67
  0
VERTEX
  8
0_2025_L_MONTHLY_BDY_FINAL_PDE_
  70
32
  10
555670.900
  20
77455.314
  30
8.693
  0
VERTEX
  8
0_2025_L_MONTHLY_BDY_FINAL_PDE_
  70
32
  10
555665.673
  20
77463.907
  30
8.808
  0
VERTEX
  8
0_2025_L_MONTHLY_BDY_FINAL_PDE_
  70
32
  10
555660.376
  20
77472.439
  30
8.981
  0
VERTEX
  8
0_2025_L_MONTHLY_BDY_FINAL_PDE_
  70
32
  10
555655.126
  20
77481.017
  30
9.119
  0
VERTEX
  8
0_2025_L_MONTHLY_BDY_FINAL_PDE_
  70
32
  10
555649.939
  20
77489.610
  30
9.211
  0
VERTEX
  8
0_2025_L_MONTHLY_BDY_FINAL_PDE_
  70
32
  10
555644.806
  20
77498.251
  30
9.251
  0
VERTEX
  8
0_2025_L_MONTHLY_BDY_FINAL_PDE_
  70
32
  10
555639.845
  20
77507.001
  30
9.165
  0
VERTEX
  8
0_2025_L_MONTHLY_BDY_FINAL_PDE_
  70
32
  10
555634.954
  20
77515.767
  30
9.027
  0
VERTEX
  8
0_2025_L_MONTHLY_BDY_FINAL_PDE_
  70
32
  10
555629.907
  20
77524.454
  30
9.004
  0
VERTEX
  8
0_2025_L_MONTHLY_BDY_FINAL_PDE_
  70
32
  10
555624.892
  20
77533.173
  30
8.958
  0
VERTEX
  8
0_2025_L_MONTHLY_BDY_FINAL_PDE_
  70
32
  10
555619.900
  20
77541.892
  30
8.895
  0
VERTEX
  8
0_2025_L_MONTHLY_BDY_FINAL_PDE_
  70
32
  10
555614.829
  20
77550.564
  30
8.889
  0
VERTEX
  8
0_2025_L_MONTHLY_BDY_FINAL_PDE_
  70
32
  10
555609.806
  20
77559.267
  30
8.854
  0
VERTEX
  8
0_2025_L_MONTHLY_BDY_FINAL_PDE_
  70
32
  10
555604.767
  20
77567.954
  30
8.825
  0
VERTEX
  8
0_2025_L_MONTHLY_BDY_FINAL_PDE_
  70
32
  10
555599.704
  20
77576.626
  30
8.82
  0
VERTEX
  8
0_2025_L_MONTHLY_BDY_FINAL_PDE_
  70
32
  10
555594.642
  20
77585.314
  30
8.808
  0
VERTEX
  8
0_2025_L_MONTHLY_BDY_FINAL_PDE_
  70
32
  10
555589.501
  20
77593.939
  30
8.86
  0
VERTEX
  8
0_2025_L_MONTHLY_BDY_FINAL_PDE_
  70
32
  10
555584.368
  20
77602.579
  30
8.906
  0
VERTEX
  8
0_2025_L_MONTHLY_BDY_FINAL_PDE_
  70
32
  10
555579.306
  20
77611.267
  30
8.895
  0
VERTEX
  8
0_2025_L_MONTHLY_BDY_FINAL_PDE_
  70
32
  10
555574.259
  20
77619.939
  30
8.877
  0
VERTEX
  8
0_2025_L_MONTHLY_BDY_FINAL_PDE_
  70
32
  10
555569.126
  20
77628.579
  30
8.923
  0
VERTEX
  8
0_2025_L_MONTHLY_BDY_FINAL_PDE_
  70
32
  10
555563.845
  20
77637.142
  30
9.079
  0
VERTEX
  8
0_2025_L_MONTHLY_BDY_FINAL_PDE_
  70
32
  10
555558.517
  20
77645.657
  30
9.28
  0
VERTEX
  8
0_2025_L_MONTHLY_BDY_FINAL_PDE_
  70
32
  10
555553.142
  20
77654.157
  30
9.51
  0
VERTEX
  8
0_2025_L_MONTHLY_BDY_FINAL_PDE_
  70
32
  10
555547.782
  20
77662.657
  30
9.729
  0
VERTEX
  8
0_2025_L_MONTHLY_BDY_FINAL_PDE_
  70
32
  10
555542.454
  20
77671.189
  30
9.925
  0
VERTEX
  8
0_2025_L_MONTHLY_BDY_FINAL_PDE_
  70
32
  10
555537.321
  20
77679.814
  30
9.971
  0
VERTEX
  8
0_2025_L_MONTHLY_BDY_FINAL_PDE_
  70
32
  10
555532.337
  20
77688.548
  30
9.902
  0
VERTEX
  8
0_2025_L_MONTHLY_BDY_FINAL_PDE_
  70
32
  10
555527.298
  20
77697.235
  30
9.873
  0
VERTEX
  8
0_2025_L_MONTHLY_BDY_FINAL_PDE_
  70
32
  10
555522.134
  20
77705.860
  30
9.948
  0
VERTEX
  8
0_2025_L_MONTHLY_BDY_FINAL_PDE_
  70
32
  10
555516.775
  20
77714.360
  30
10.166
  0
VERTEX
  8
0_2025_L_MONTHLY_BDY_FINAL_PDE_
  70
32
  10
555510.790
  20
77722.501
  30
10.868
  0
VERTEX
  8
0_2025_L_MONTHLY_BDY_FINAL_PDE_
  70
32
  10
555504.626
  20
77730.532
  30
11.708
  0
VERTEX
  8
0_2025_L_MONTHLY_BDY_FINAL_PDE_
  70
32
  10
555498.392
  20
77738.532
  30
12.606
  0
VERTEX
  8
0_2025_L_MONTHLY_BDY_FINAL_PDE_
  70
32
  10
555492.532
  20
77746.735
  30
13.216
  0
VERTEX
  8
0_2025_L_MONTHLY_BDY_FINAL_PDE_
  70
32
  10
555486.962
  20
77755.126
  30
13.596
  0
VERTEX
  8
0_2025_L_MONTHLY_BDY_FINAL_PDE_
  70
32
  10
555481.439
  20
77763.532
  30
13.941
  0
VERTEX
  8
0_2025_L_MONTHLY_BDY_FINAL_PDE_
  70
32
  10
555476.548
  20
77772.314
  30
13.803
  0
VERTEX
  8
0_2025_L_MONTHLY_BDY_FINAL_PDE_
  70
32
  10
555475.861
  20
77773.642
  30
13.751
  0
VERTEX
  8
0_2025_L_MONTHLY_BDY_FINAL_PDE_
  70
32
  10
555392.181
  20
77722.532
  30
20
  0
VERTEX
  8
0_2025_L_MONTHLY_BDY_FINAL_PDE_
  70
32
  10
555390.095
  20
77697.532
  30
20
  0
VERTEX
  8
0_2025_L_MONTHLY_BDY_FINAL_PDE_
  70
32
  10
555391.032
  20
77672.532
  30
20
  0
VERTEX
  8
0_2025_L_MONTHLY_BDY_FINAL_PDE_
  70
32
  10
555363.267
  20
77683.126
  30
20
  0
VERTEX
  8
0_2025_L_MONTHLY_BDY_FINAL_PDE_
  70
32
  10
555358.314
  20
77672.532
  30
20
  0
VERTEX
  8
0_2025_L_MONTHLY_BDY_FINAL_PDE_
  70
32
  10
555346.400
  20
77664.392
  30
20
  0
VERTEX
  8
0_2025_L_MONTHLY_BDY_FINAL_PDE_
  70
32
  10
555336.454
  20
77661.642
  30
20
  0
VERTEX
  8
0_2025_L_MONTHLY_BDY_FINAL_PDE_
  70
32
  10
555251.806
  20
77672.532
  30
30
  0
SEQEND
  8
0_2025_L_MONTHLY_BDY_FINAL_PDE_
  0
POLYLINE
  8
0_2025_L_MONTHLY_BDY_FINAL_PDE_
  70
8
  66
1
 62
3
 39
1
  0
VERTEX
  8
0_2025_L_MONTHLY_BDY_FINAL_PDE_
  70
32
  10
555336.454
  20
77661.642
  30
20
  0
VERTEX
  8
0_2025_L_MONTHLY_BDY_FINAL_PDE_
  70
32
  10
555352.970
  20
77633.423
  30
20
  0
VERTEX
  8
0_2025_L_MONTHLY_BDY_FINAL_PDE_
  70
32
  10
555421.798
  20
77515.782
  30
20
  0
SEQEND
  8
0_2025_L_MONTHLY_BDY_FINAL_PDE_
  0
POLYLINE
  8
0_2025_L_MONTHLY_BDY_FINAL_PDE_
  70
8
  66
1
 62
1
 39
1
  0
VERTEX
  8
0_2025_L_MONTHLY_BDY_FINAL_PDE_
  70
32
  10
555251.806
  20
77672.532
  30
30
  0
VERTEX
  8
0_2025_L_MONTHLY_BDY_FINAL_PDE_
  70
32
  10
555324.939
  20
77651.642
  30
30
  0
VERTEX
  8
0_2025_L_MONTHLY_BDY_FINAL_PDE_
  70
32
  10
555329.962
  20
77643.032
  30
30
  0
VERTEX
  8
0_2025_L_MONTHLY_BDY_FINAL_PDE_
  70
32
  10
555340.025
  20
77625.845
  30
30
  0
VERTEX
  8
0_2025_L_MONTHLY_BDY_FINAL_PDE_
  70
32
  10
555415.517
  20
77496.814
  30
30
  0
SEQEND
  8
0_2025_L_MONTHLY_BDY_FINAL_PDE_
  0
POLYLINE
  8
0_2025_L_MONTHLY_BDY_FINAL_PDE_
  70
8
  66
1
 62
1
 39
1
  0
VERTEX
  8
0_2025_L_MONTHLY_BDY_FINAL_PDE_
  70
32
  10
555435.798
  20
77462.157
  30
30
  0
VERTEX
  8
0_2025_L_MONTHLY_BDY_FINAL_PDE_
  70
32
  10
555607.947
  20
77167.939
  30
30
  0
VERTEX
  8
0_2025_L_MONTHLY_BDY_FINAL_PDE_
  70
32
  10
555649.790
  20
77096.423
  30
30
  0
SEQEND
  8
0_2025_L_MONTHLY_BDY_FINAL_PDE_
  0
POLYLINE
  8
0_2025_L_MONTHLY_BDY_FINAL_PDE_
  70
8
  66
1
 62
4
 39
1
  0
VERTEX
  8
0_2025_L_MONTHLY_BDY_FINAL_PDE_
  70
32
  10
555435.798
  20
77462.157
  30
30
  0
VERTEX
  8
0_2025_L_MONTHLY_BDY_FINAL_PDE_
  70
32
  10
555543.782
  20
77525.329
  30
20
  0
SEQEND
  8
0_2025_L_MONTHLY_BDY_FINAL_PDE_
  0
POLYLINE
  8
0_2025_L_MONTHLY_BDY_FINAL_PDE_
  70
8
  66
1
 62
4
 39
1
  0
VERTEX
  8
0_2025_L_MONTHLY_BDY_FINAL_PDE_
  70
32
  10
555415.517
  20
77496.814
  30
30
  0
VERTEX
  8
0_2025_L_MONTHLY_BDY_FINAL_PDE_
  70
32
  10
555523.501
  20
77560.001
  30
20
  0
SEQEND
  8
0_2025_L_MONTHLY_BDY_FINAL_PDE_
  0
POLYLINE
  8
0_2025_L_MONTHLY_BDY_FINAL_PDE_
  70
8
  66
1
 62
3
 39
1
  0
VERTEX
  8
0_2025_L_MONTHLY_BDY_FINAL_PDE_
  70
32
  10
555455.407
  20
77458.345
  30
20
  0
VERTEX
  8
0_2025_L_MONTHLY_BDY_FINAL_PDE_
  70
32
  10
555458.821
  20
77460.923
  30
20
  0
VERTEX
  8
0_2025_L_MONTHLY_BDY_FINAL_PDE_
  70
32
  10
555466.548
  20
77466.782
  30
20
  0
VERTEX
  8
0_2025_L_MONTHLY_BDY_FINAL_PDE_
  70
32
  10
555474.267
  20
77472.626
  30
20
  0
VERTEX
  8
0_2025_L_MONTHLY_BDY_FINAL_PDE_
  70
32
  10
555481.993
  20
77478.485
  30
20
  0
VERTEX
  8
0_2025_L_MONTHLY_BDY_FINAL_PDE_
  70
32
  10
555489.720
  20
77484.345
  30
20
  0
VERTEX
  8
0_2025_L_MONTHLY_BDY_FINAL_PDE_
  70
32
  10
555497.439
  20
77490.204
  30
20
  0
VERTEX
  8
0_2025_L_MONTHLY_BDY_FINAL_PDE_
  70
32
  10
555505.165
  20
77496.064
  30
20
  0
VERTEX
  8
0_2025_L_MONTHLY_BDY_FINAL_PDE_
  70
32
  10
555512.892
  20
77501.907
  30
20
  0
VERTEX
  8
0_2025_L_MONTHLY_BDY_FINAL_PDE_
  70
32
  10
555520.611
  20
77507.767
  30
20
  0
VERTEX
  8
0_2025_L_MONTHLY_BDY_FINAL_PDE_
  70
32
  10
555528.337
  20
77513.626
  30
20
  0
VERTEX
  8
0_2025_L_MONTHLY_BDY_FINAL_PDE_
  70
32
  10
555536.064
  20
77519.485
  30
20
  0
VERTEX
  8
0_2025_L_MONTHLY_BDY_FINAL_PDE_
  70
32
  10
555543.782
  20
77525.329
  30
20
  0
SEQEND
  8
0_2025_L_MONTHLY_BDY_FINAL_PDE_
  0
POLYLINE
  8
0_2025_L_MONTHLY_BDY_FINAL_PDE_
  70
8
  66
1
 62
3
 39
1
  0
VERTEX
  8
0_2025_L_MONTHLY_BDY_FINAL_PDE_
  70
32
  10
555421.798
  20
77515.782
  30
20
  0
VERTEX
  8
0_2025_L_MONTHLY_BDY_FINAL_PDE_
  70
32
  10
555425.720
  20
77517.485
  30
20
  0
VERTEX
  8
0_2025_L_MONTHLY_BDY_FINAL_PDE_
  70
32
  10
555434.611
  20
77521.360
  30
20
  0
VERTEX
  8
0_2025_L_MONTHLY_BDY_FINAL_PDE_
  70
32
  10
555443.501
  20
77525.220
  30
20
  0
VERTEX
  8
0_2025_L_MONTHLY_BDY_FINAL_PDE_
  70
32
  10
555452.392
  20
77529.079
  30
20
  0
VERTEX
  8
0_2025_L_MONTHLY_BDY_FINAL_PDE_
  70
32
  10
555461.282
  20
77532.954
  30
20
  0
VERTEX
  8
0_2025_L_MONTHLY_BDY_FINAL_PDE_
  70
32
  10
555470.165
  20
77536.814
  30
20
  0
VERTEX
  8
0_2025_L_MONTHLY_BDY_FINAL_PDE_
  70
32
  10
555479.056
  20
77540.673
  30
20
  0
VERTEX
  8
0_2025_L_MONTHLY_BDY_FINAL_PDE_
  70
32
  10
555487.946
  20
77544.548
  30
20
  0
VERTEX
  8
0_2025_L_MONTHLY_BDY_FINAL_PDE_
  70
32
  10
555496.829
  20
77548.407
  30
20
  0
VERTEX
  8
0_2025_L_MONTHLY_BDY_FINAL_PDE_
  70
32
  10
555505.720
  20
77552.267
  30
20
  0
VERTEX
  8
0_2025_L_MONTHLY_BDY_FINAL_PDE_
  70
32
  10
555514.611
  20
77556.142
  30
20
  0
VERTEX
  8
0_2025_L_MONTHLY_BDY_FINAL_PDE_
  70
32
  10
555523.501
  20
77560.001
  30
20
  0
SEQEND
  8
0_2025_L_MONTHLY_BDY_FINAL_PDE_
  0
POLYLINE
  8
0_2025_L_MONTHLY_BDY_FINAL_PDE_
  70
8
  66
1
 62
3
 39
1
  0
VERTEX
  8
0_2025_L_MONTHLY_BDY_FINAL_PDE_
  70
32
  10
555455.407
  20
77458.345
  30
20
  0
VERTEX
  8
0_2025_L_MONTHLY_BDY_FINAL_PDE_
  70
32
  10
555620.892
  20
77175.517
  30
20
  0
VERTEX
  8
0_2025_L_MONTHLY_BDY_FINAL_PDE_
  70
32
  10
555635.064
  20
77151.298
  30
20
  0
SEQEND
  8
0_2025_L_MONTHLY_BDY_FINAL_PDE_
  0
POLYLINE
  8
0_2025_L_MONTHLY_BDY_FINAL_PDE_
  70
8
  66
1
 62
1
 39
1
  0
VERTEX
  8
0_2025_L_MONTHLY_BDY_FINAL_PDE_
  70
32
  10
555392.181
  20
77722.532
  30
20
  0
VERTEX
  8
0_2025_L_MONTHLY_BDY_FINAL_PDE_
  70
32
  10
555468.532
  20
77767.626
  30
20
  0
VERTEX
  8
0_2025_L_MONTHLY_BDY_FINAL_PDE_
  70
32
  10
555801.001
  20
77199.376
  30
20
  0
VERTEX
  8
0_2025_L_MONTHLY_BDY_FINAL_PDE_
  70
32
  10
555817.197
  20
77171.689
  30
20
  0
SEQEND
  8
0_2025_L_MONTHLY_BDY_FINAL_PDE_
  0
POLYLINE
  8
0_2025_L_MONTHLY_BDY_FINAL_PDE_
  70
8
  66
1
 62
30
 39
1
  0
VERTEX
  8
0_2025_L_MONTHLY_BDY_FINAL_PDE_
  70
32
  10
555523.501
  20
77560.001
  30
20
  0
VERTEX
  8
0_2025_L_MONTHLY_BDY_FINAL_PDE_
  70
32
  10
555543.782
  20
77525.329
  30
20
  0
SEQEND
  8
0_2025_L_MONTHLY_BDY_FINAL_PDE_
  0
POLYLINE
  8
0_2025_L_MONTHLY_BDY_FINAL_PDE_
  70
8
  66
1
 62
3
 39
1
  0
VERTEX
  8
0_2025_L_MONTHLY_BDY_FINAL_PDE_
  70
32
  10
555336.454
  20
77661.642
  30
20
  0
VERTEX
  8
0_2025_L_MONTHLY_BDY_FINAL_PDE_
  70
32
  10
555352.970
  20
77633.423
  30
20
  0
VERTEX
  8
0_2025_L_MONTHLY_BDY_FINAL_PDE_
  70
32
  10
555421.798
  20
77515.782
  30
20
  0
SEQEND
  8
0_2025_L_MONTHLY_BDY_FINAL_PDE_
  0
POLYLINE
  8
0_2025_L_MONTHLY_BDY_FINAL_PDE_
  70
8
  66
1
 62
1
 39
1
  0
VERTEX
  8
0_2025_L_MONTHLY_BDY_FINAL_PDE_
  70
32
  10
555251.806
  20
77672.532
  30
30
  0
VERTEX
  8
0_2025_L_MONTHLY_BDY_FINAL_PDE_
  70
32
  10
555324.939
  20
77651.642
  30
30
  0
VERTEX
  8
0_2025_L_MONTHLY_BDY_FINAL_PDE_
  70
32
  10
555329.962
  20
77643.032
  30
30
  0
VERTEX
  8
0_2025_L_MONTHLY_BDY_FINAL_PDE_
  70
32
  10
555340.025
  20
77625.845
  30
30
  0
VERTEX
  8
0_2025_L_MONTHLY_BDY_FINAL_PDE_
  70
32
  10
555415.517
  20
77496.814
  30
30
  0
SEQEND
  8
0_2025_L_MONTHLY_BDY_FINAL_PDE_
  0
POLYLINE
  8
0_2025_L_MONTHLY_BDY_FINAL_PDE_
  70
8
  66
1
 62
1
 39
1
  0
VERTEX
  8
0_2025_L_MONTHLY_BDY_FINAL_PDE_
  70
32
  10
555435.798
  20
77462.157
  30
30
  0
VERTEX
  8
0_2025_L_MONTHLY_BDY_FINAL_PDE_
  70
32
  10
555607.947
  20
77167.939
  30
30
  0
VERTEX
  8
0_2025_L_MONTHLY_BDY_FINAL_PDE_
  70
32
  10
555649.790
  20
77096.423
  30
30
  0
SEQEND
  8
0_2025_L_MONTHLY_BDY_FINAL_PDE_
  0
POLYLINE
  8
0_2025_L_MONTHLY_BDY_FINAL_PDE_
  70
8
  66
1
 62
4
 39
1
  0
VERTEX
  8
0_2025_L_MONTHLY_BDY_FINAL_PDE_
  70
32
  10
555435.798
  20
77462.157
  30
30
  0
VERTEX
  8
0_2025_L_MONTHLY_BDY_FINAL_PDE_
  70
32
  10
555543.782
  20
77525.329
  30
20
  0
SEQEND
  8
0_2025_L_MONTHLY_BDY_FINAL_PDE_
  0
POLYLINE
  8
0_2025_L_MONTHLY_BDY_FINAL_PDE_
  70
8
  66
1
 62
4
 39
1
  0
VERTEX
  8
0_2025_L_MONTHLY_BDY_FINAL_PDE_
  70
32
  10
555415.517
  20
77496.814
  30
30
  0
VERTEX
  8
0_2025_L_MONTHLY_BDY_FINAL_PDE_
  70
32
  10
555523.501
  20
77560.001
  30
20
  0
SEQEND
  8
0_2025_L_MONTHLY_BDY_FINAL_PDE_
  0
POLYLINE
  8
0_2025_L_MONTHLY_BDY_FINAL_PDE_
  70
8
  66
1
 62
3
 39
1
  0
VERTEX
  8
0_2025_L_MONTHLY_BDY_FINAL_PDE_
  70
32
  10
555455.407
  20
77458.345
  30
20
  0
VERTEX
  8
0_2025_L_MONTHLY_BDY_FINAL_PDE_
  70
32
  10
555458.821
  20
77460.923
  30
20
  0
VERTEX
  8
0_2025_L_MONTHLY_BDY_FINAL_PDE_
  70
32
  10
555466.548
  20
77466.782
  30
20
  0
VERTEX
  8
0_2025_L_MONTHLY_BDY_FINAL_PDE_
  70
32
  10
555474.267
  20
77472.626
  30
20
  0
VERTEX
  8
0_2025_L_MONTHLY_BDY_FINAL_PDE_
  70
32
  10
555481.993
  20
77478.485
  30
20
  0
VERTEX
  8
0_2025_L_MONTHLY_BDY_FINAL_PDE_
  70
32
  10
555489.720
  20
77484.345
  30
20
  0
VERTEX
  8
0_2025_L_MONTHLY_BDY_FINAL_PDE_
  70
32
  10
555497.439
  20
77490.204
  30
20
  0
VERTEX
  8
0_2025_L_MONTHLY_BDY_FINAL_PDE_
  70
32
  10
555505.165
  20
77496.064
  30
20
  0
VERTEX
  8
0_2025_L_MONTHLY_BDY_FINAL_PDE_
  70
32
  10
555512.892
  20
77501.907
  30
20
  0
VERTEX
  8
0_2025_L_MONTHLY_BDY_FINAL_PDE_
  70
32
  10
555520.611
  20
77507.767
  30
20
  0
VERTEX
  8
0_2025_L_MONTHLY_BDY_FINAL_PDE_
  70
32
  10
555528.337
  20
77513.626
  30
20
  0
VERTEX
  8
0_2025_L_MONTHLY_BDY_FINAL_PDE_
  70
32
  10
555536.064
  20
77519.485
  30
20
  0
VERTEX
  8
0_2025_L_MONTHLY_BDY_FINAL_PDE_
  70
32
  10
555543.782
  20
77525.329
  30
20
  0
SEQEND
  8
0_2025_L_MONTHLY_BDY_FINAL_PDE_
  0
POLYLINE
  8
0_2025_L_MONTHLY_BDY_FINAL_PDE_
  70
8
  66
1
 62
3
 39
1
  0
VERTEX
  8
0_2025_L_MONTHLY_BDY_FINAL_PDE_
  70
32
  10
555421.798
  20
77515.782
  30
20
  0
VERTEX
  8
0_2025_L_MONTHLY_BDY_FINAL_PDE_
  70
32
  10
555425.720
  20
77517.485
  30
20
  0
VERTEX
  8
0_2025_L_MONTHLY_BDY_FINAL_PDE_
  70
32
  10
555434.611
  20
77521.360
  30
20
  0
VERTEX
  8
0_2025_L_MONTHLY_BDY_FINAL_PDE_
  70
32
  10
555443.501
  20
77525.220
  30
20
  0
VERTEX
  8
0_2025_L_MONTHLY_BDY_FINAL_PDE_
  70
32
  10
555452.392
  20
77529.079
  30
20
  0
VERTEX
  8
0_2025_L_MONTHLY_BDY_FINAL_PDE_
  70
32
  10
555461.282
  20
77532.954
  30
20
  0
VERTEX
  8
0_2025_L_MONTHLY_BDY_FINAL_PDE_
  70
32
  10
555470.165
  20
77536.814
  30
20
  0
VERTEX
  8
0_2025_L_MONTHLY_BDY_FINAL_PDE_
  70
32
  10
555479.056
  20
77540.673
  30
20
  0
VERTEX
  8
0_2025_L_MONTHLY_BDY_FINAL_PDE_
  70
32
  10
555487.946
  20
77544.548
  30
20
  0
VERTEX
  8
0_2025_L_MONTHLY_BDY_FINAL_PDE_
  70
32
  10
555496.829
  20
77548.407
  30
20
  0
VERTEX
  8
0_2025_L_MONTHLY_BDY_FINAL_PDE_
  70
32
  10
555505.720
  20
77552.267
  30
20
  0
VERTEX
  8
0_2025_L_MONTHLY_BDY_FINAL_PDE_
  70
32
  10
555514.611
  20
77556.142
  30
20
  0
VERTEX
  8
0_2025_L_MONTHLY_BDY_FINAL_PDE_
  70
32
  10
555523.501
  20
77560.001
  30
20
  0
SEQEND
  8
0_2025_L_MONTHLY_BDY_FINAL_PDE_
  0
POLYLINE
  8
0_2025_L_MONTHLY_BDY_FINAL_PDE_
  70
8
  66
1
 62
3
 39
1
  0
VERTEX
  8
0_2025_L_MONTHLY_BDY_FINAL_PDE_
  70
32
  10
555455.407
  20
77458.345
  30
20
  0
VERTEX
  8
0_2025_L_MONTHLY_BDY_FINAL_PDE_
  70
32
  10
555620.892
  20
77175.517
  30
20
  0
VERTEX
  8
0_2025_L_MONTHLY_BDY_FINAL_PDE_
  70
32
  10
555635.064
  20
77151.298
  30
20
  0
SEQEND
  8
0_2025_L_MONTHLY_BDY_FINAL_PDE_
  0
POLYLINE
  8
0_2025_L_MONTHLY_BDY_FINAL_PDE_
  70
8
  66
1
 62
1
 39
1
  0
VERTEX
  8
0_2025_L_MONTHLY_BDY_FINAL_PDE_
  70
32
  10
555392.181
  20
77722.532
  30
20
  0
VERTEX
  8
0_2025_L_MONTHLY_BDY_FINAL_PDE_
  70
32
  10
555468.532
  20
77767.626
  30
20
  0
VERTEX
  8
0_2025_L_MONTHLY_BDY_FINAL_PDE_
  70
32
  10
555801.001
  20
77199.376
  30
20
  0
VERTEX
  8
0_2025_L_MONTHLY_BDY_FINAL_PDE_
  70
32
  10
555817.197
  20
77171.689
  30
20
  0
SEQEND
  8
0_2025_L_MONTHLY_BDY_FINAL_PDE_
  0
POLYLINE
  8
0_2025_L_MONTHLY_BDY_FINAL_PDE_
  70
8
  66
1
 62
30
 39
1
  0
VERTEX
  8
0_2025_L_MONTHLY_BDY_FINAL_PDE_
  70
32
  10
555523.501
  20
77560.001
  30
20
  0
VERTEX
  8
0_2025_L_MONTHLY_BDY_FINAL_PDE_
  70
32
  10
555543.782
  20
77525.329
  30
20
  0
SEQEND
  8
0_2025_L_MONTHLY_BDY_FINAL_PDE_
  0
POLYLINE
  8
0_2025_L_MONTHLY_BDY_FINAL_PDE_
  70
8
  66
1
 62
3
 39
1
  0
VERTEX
  8
0_2025_L_MONTHLY_BDY_FINAL_PDE_
  70
32
  10
555336.454
  20
77661.642
  30
20
  0
VERTEX
  8
0_2025_L_MONTHLY_BDY_FINAL_PDE_
  70
32
  10
555352.970
  20
77633.423
  30
20
  0
VERTEX
  8
0_2025_L_MONTHLY_BDY_FINAL_PDE_
  70
32
  10
555421.798
  20
77515.782
  30
20
  0
SEQEND
  8
0_2025_L_MONTHLY_BDY_FINAL_PDE_
  0
POLYLINE
  8
0_2025_L_MONTHLY_BDY_FINAL_PDE_
  70
8
  66
1
 62
1
 39
1
  0
VERTEX
  8
0_2025_L_MONTHLY_BDY_FINAL_PDE_
  70
32
  10
555251.806
  20
77672.532
  30
30
  0
VERTEX
  8
0_2025_L_MONTHLY_BDY_FINAL_PDE_
  70
32
  10
555324.939
  20
77651.642
  30
30
  0
VERTEX
  8
0_2025_L_MONTHLY_BDY_FINAL_PDE_
  70
32
  10
555329.962
  20
77643.032
  30
30
  0
VERTEX
  8
0_2025_L_MONTHLY_BDY_FINAL_PDE_
  70
32
  10
555340.025
  20
77625.845
  30
30
  0
VERTEX
  8
0_2025_L_MONTHLY_BDY_FINAL_PDE_
  70
32
  10
555415.517
  20
77496.814
  30
30
  0
SEQEND
  8
0_2025_L_MONTHLY_BDY_FINAL_PDE_
  0
POLYLINE
  8
0_2025_L_MONTHLY_BDY_FINAL_PDE_
  70
8
  66
1
 62
1
 39
1
  0
VERTEX
  8
0_2025_L_MONTHLY_BDY_FINAL_PDE_
  70
32
  10
555435.798
  20
77462.157
  30
30
  0
VERTEX
  8
0_2025_L_MONTHLY_BDY_FINAL_PDE_
  70
32
  10
555607.947
  20
77167.939
  30
30
  0
VERTEX
  8
0_2025_L_MONTHLY_BDY_FINAL_PDE_
  70
32
  10
555649.790
  20
77096.423
  30
30
  0
SEQEND
  8
0_2025_L_MONTHLY_BDY_FINAL_PDE_
  0
POLYLINE
  8
0_2025_L_MONTHLY_BDY_FINAL_PDE_
  70
8
  66
1
 62
4
 39
1
  0
VERTEX
  8
0_2025_L_MONTHLY_BDY_FINAL_PDE_
  70
32
  10
555435.798
  20
77462.157
  30
30
  0
VERTEX
  8
0_2025_L_MONTHLY_BDY_FINAL_PDE_
  70
32
  10
555543.782
  20
77525.329
  30
20
  0
SEQEND
  8
0_2025_L_MONTHLY_BDY_FINAL_PDE_
  0
POLYLINE
  8
0_2025_L_MONTHLY_BDY_FINAL_PDE_
  70
8
  66
1
 62
4
 39
1
  0
VERTEX
  8
0_2025_L_MONTHLY_BDY_FINAL_PDE_
  70
32
  10
555415.517
  20
77496.814
  30
30
  0
VERTEX
  8
0_2025_L_MONTHLY_BDY_FINAL_PDE_
  70
32
  10
555523.501
  20
77560.001
  30
20
  0
SEQEND
  8
0_2025_L_MONTHLY_BDY_FINAL_PDE_
  0
POLYLINE
  8
0_2025_L_MONTHLY_BDY_FINAL_PDE_
  70
8
  66
1
 62
3
 39
1
  0
VERTEX
  8
0_2025_L_MONTHLY_BDY_FINAL_PDE_
  70
32
  10
555455.407
  20
77458.345
  30
20
  0
VERTEX
  8
0_2025_L_MONTHLY_BDY_FINAL_PDE_
  70
32
  10
555458.821
  20
77460.923
  30
20
  0
VERTEX
  8
0_2025_L_MONTHLY_BDY_FINAL_PDE_
  70
32
  10
555466.548
  20
77466.782
  30
20
  0
VERTEX
  8
0_2025_L_MONTHLY_BDY_FINAL_PDE_
  70
32
  10
555474.267
  20
77472.626
  30
20
  0
VERTEX
  8
0_2025_L_MONTHLY_BDY_FINAL_PDE_
  70
32
  10
555481.993
  20
77478.485
  30
20
  0
VERTEX
  8
0_2025_L_MONTHLY_BDY_FINAL_PDE_
  70
32
  10
555489.720
  20
77484.345
  30
20
  0
VERTEX
  8
0_2025_L_MONTHLY_BDY_FINAL_PDE_
  70
32
  10
555497.439
  20
77490.204
  30
20
  0
VERTEX
  8
0_2025_L_MONTHLY_BDY_FINAL_PDE_
  70
32
  10
555505.165
  20
77496.064
  30
20
  0
VERTEX
  8
0_2025_L_MONTHLY_BDY_FINAL_PDE_
  70
32
  10
555512.892
  20
77501.907
  30
20
  0
VERTEX
  8
0_2025_L_MONTHLY_BDY_FINAL_PDE_
  70
32
  10
555520.611
  20
77507.767
  30
20
  0
VERTEX
  8
0_2025_L_MONTHLY_BDY_FINAL_PDE_
  70
32
  10
555528.337
  20
77513.626
  30
20
  0
VERTEX
  8
0_2025_L_MONTHLY_BDY_FINAL_PDE_
  70
32
  10
555536.064
  20
77519.485
  30
20
  0
VERTEX
  8
0_2025_L_MONTHLY_BDY_FINAL_PDE_
  70
32
  10
555543.782
  20
77525.329
  30
20
  0
SEQEND
  8
0_2025_L_MONTHLY_BDY_FINAL_PDE_
  0
POLYLINE
  8
0_2025_L_MONTHLY_BDY_FINAL_PDE_
  70
8
  66
1
 62
3
 39
1
  0
VERTEX
  8
0_2025_L_MONTHLY_BDY_FINAL_PDE_
  70
32
  10
555421.798
  20
77515.782
  30
20
  0
VERTEX
  8
0_2025_L_MONTHLY_BDY_FINAL_PDE_
  70
32
  10
555425.720
  20
77517.485
  30
20
  0
VERTEX
  8
0_2025_L_MONTHLY_BDY_FINAL_PDE_
  70
32
  10
555434.611
  20
77521.360
  30
20
  0
VERTEX
  8
0_2025_L_MONTHLY_BDY_FINAL_PDE_
  70
32
  10
555443.501
  20
77525.220
  30
20
  0
VERTEX
  8
0_2025_L_MONTHLY_BDY_FINAL_PDE_
  70
32
  10
555452.392
  20
77529.079
  30
20
  0
VERTEX
  8
0_2025_L_MONTHLY_BDY_FINAL_PDE_
  70
32
  10
555461.282
  20
77532.954
  30
20
  0
VERTEX
  8
0_2025_L_MONTHLY_BDY_FINAL_PDE_
  70
32
  10
555470.165
  20
77536.814
  30
20
  0
VERTEX
  8
0_2025_L_MONTHLY_BDY_FINAL_PDE_
  70
32
  10
555479.056
  20
77540.673
  30
20
  0
VERTEX
  8
0_2025_L_MONTHLY_BDY_FINAL_PDE_
  70
32
  10
555487.946
  20
77544.548
  30
20
  0
VERTEX
  8
0_2025_L_MONTHLY_BDY_FINAL_PDE_
  70
32
  10
555496.829
  20
77548.407
  30
20
  0
VERTEX
  8
0_2025_L_MONTHLY_BDY_FINAL_PDE_
  70
32
  10
555505.720
  20
77552.267
  30
20
  0
VERTEX
  8
0_2025_L_MONTHLY_BDY_FINAL_PDE_
  70
32
  10
555514.611
  20
77556.142
  30
20
  0
VERTEX
  8
0_2025_L_MONTHLY_BDY_FINAL_PDE_
  70
32
  10
555523.501
  20
77560.001
  30
20
  0
SEQEND
  8
0_2025_L_MONTHLY_BDY_FINAL_PDE_
  0
POLYLINE
  8
0_2025_L_MONTHLY_BDY_FINAL_PDE_
  70
8
  66
1
 62
3
 39
1
  0
VERTEX
  8
0_2025_L_MONTHLY_BDY_FINAL_PDE_
  70
32
  10
555455.407
  20
77458.345
  30
20
  0
VERTEX
  8
0_2025_L_MONTHLY_BDY_FINAL_PDE_
  70
32
  10
555620.892
  20
77175.517
  30
20
  0
VERTEX
  8
0_2025_L_MONTHLY_BDY_FINAL_PDE_
  70
32
  10
555635.064
  20
77151.298
  30
20
  0
SEQEND
  8
0_2025_L_MONTHLY_BDY_FINAL_PDE_
  0
POLYLINE
  8
0_2025_L_MONTHLY_BDY_FINAL_PDE_
  70
8
  66
1
 62
1
 39
1
  0
VERTEX
  8
0_2025_L_MONTHLY_BDY_FINAL_PDE_
  70
32
  10
555392.181
  20
77722.532
  30
20
  0
VERTEX
  8
0_2025_L_MONTHLY_BDY_FINAL_PDE_
  70
32
  10
555468.532
  20
77767.626
  30
20
  0
VERTEX
  8
0_2025_L_MONTHLY_BDY_FINAL_PDE_
  70
32
  10
555801.001
  20
77199.376
  30
20
  0
VERTEX
  8
0_2025_L_MONTHLY_BDY_FINAL_PDE_
  70
32
  10
555817.197
  20
77171.689
  30
20
  0
SEQEND
  8
0_2025_L_MONTHLY_BDY_FINAL_PDE_
  0
POLYLINE
  8
0_2025_L_MONTHLY_BDY_FINAL_PDE_
  70
8
  66
1
 62
30
 39
1
  0
VERTEX
  8
0_2025_L_MONTHLY_BDY_FINAL_PDE_
  70
32
  10
555523.501
  20
77560.001
  30
20
  0
VERTEX
  8
0_2025_L_MONTHLY_BDY_FINAL_PDE_
  70
32
  10
555543.782
  20
77525.329
  30
20
  0
SEQEND
  8
0_2025_L_MONTHLY_BDY_FINAL_PDE_
  0
TEXT
  8
0_2025_L_MONTHLY_BDY_FINAL_PDE_
 62
7
  1
20
 40
8.80000019
 72
0
 73
0
  10
555582.064
  20
77343.204
 30
70
  0
TEXT
  8
0_2025_L_MONTHLY_BDY_FINAL_PDE_
 62
7
  1
Keladi
 40
44.00000000
 72
0
 73
0
  10
555288.758
  20
77383.639
 30
0.000000
  0
ENDSEC
  0
EOF
